<svg width="265" height="387" viewBox="0 0 265 387" fill="none" xmlns="http://www.w3.org/2000/svg">
<path fill-rule="evenodd" clip-rule="evenodd" d="M50.5 76L2 1L88.5 33C177.3 19 214.833 52.8333 222.5 71.5C252.5 125.9 222.333 176.833 203.5 195.5C251.1 214.7 263.333 250.833 263.5 266.5C265.5 362.1 199 386 164 386H51L50.5 76ZM86 221.068H159.92C195.06 221.068 223.547 249.555 223.547 284.695C223.547 319.835 195.06 348.322 159.92 348.322H86V221.068ZM141.206 62H86V185.511H141.206C175.313 185.511 202.962 157.862 202.962 123.756C202.962 89.649 175.313 62 141.206 62Z" fill="white"/>
<path d="M2 1L2.17348 0.53106L0.764167 0.00969562L1.58014 1.27151L2 1ZM50.5 76L51 75.9992L50.9998 75.8521L50.9199 75.7285L50.5 76ZM88.5 33L88.3265 33.4689L88.4489 33.5142L88.5779 33.4939L88.5 33ZM222.5 71.5L222.037 71.69L222.048 71.7164L222.062 71.7415L222.5 71.5ZM203.5 195.5L203.148 195.145L202.609 195.68L203.313 195.964L203.5 195.5ZM263.5 266.5L263 266.505L263 266.51L263.5 266.5ZM51 386L50.5 386.001L50.5008 386.5H51V386ZM86 221.068V220.568H85.5V221.068H86ZM86 348.322H85.5V348.822H86V348.322ZM86 62V61.5H85.5V62H86ZM86 185.511H85.5V186.011H86V185.511ZM1.58014 1.27151L50.0801 76.2715L50.9199 75.7285L2.41986 0.72849L1.58014 1.27151ZM88.6735 32.5311L2.17348 0.53106L1.82652 1.46894L88.3265 33.4689L88.6735 32.5311ZM222.963 71.31C215.174 52.3467 177.349 18.4861 88.4221 32.5061L88.5779 33.4939C177.251 19.5139 214.493 53.32 222.037 71.69L222.963 71.31ZM203.852 195.855C222.76 177.115 253.094 125.942 222.938 71.2585L222.062 71.7415C251.906 125.858 221.907 176.552 203.148 195.145L203.852 195.855ZM264 266.495C263.831 250.631 251.479 214.314 203.687 195.036L203.313 195.964C250.721 215.086 262.835 251.036 263 266.505L264 266.495ZM164 386.5C181.596 386.5 207.094 380.496 227.952 362.478C248.829 344.444 265.003 314.419 264 266.49L263 266.51C263.997 314.181 247.921 343.906 227.298 361.722C206.656 379.554 181.404 385.5 164 385.5V386.5ZM51 386.5H164V385.5H51V386.5ZM50 76.0008L50.5 386.001L51.5 385.999L51 75.9992L50 76.0008ZM159.92 220.568H86V221.568H159.92V220.568ZM224.047 284.695C224.047 249.279 195.336 220.568 159.92 220.568V221.568C194.784 221.568 223.047 249.831 223.047 284.695H224.047ZM159.92 348.822C195.336 348.822 224.047 320.111 224.047 284.695H223.047C223.047 319.559 194.784 347.822 159.92 347.822V348.822ZM86 348.822H159.92V347.822H86V348.822ZM85.5 221.068V348.322H86.5V221.068H85.5ZM86 62.5H141.206V61.5H86V62.5ZM86.5 185.511V62H85.5V185.511H86.5ZM141.206 185.011H86V186.011H141.206V185.011ZM202.462 123.756C202.462 157.586 175.037 185.011 141.206 185.011V186.011C175.589 186.011 203.462 158.139 203.462 123.756H202.462ZM141.206 62.5C175.037 62.5 202.462 89.9251 202.462 123.756H203.462C203.462 89.3729 175.589 61.5 141.206 61.5V62.5Z" fill="white"/>
<circle cx="123.607" cy="103.607" r="20.6073" fill="#E31837"/>
</svg>
