<svg width="265" height="387" viewBox="0 0 265 387" fill="none" xmlns="http://www.w3.org/2000/svg">
<path d="M50.5 76L2 1L88.5 33C177.3 19 214.833 52.8333 222.5 71.5C252.5 125.9 222.333 176.833 203.5 195.5C251.1 214.7 263.333 250.833 263.5 266.5C265.5 362.1 199 386 164 386H51L50.5 76Z" fill="#342C2C" stroke="#342C2C"/>
<path d="M86 221H159.92C195.06 221 223.547 249.487 223.547 284.627V284.627C223.547 319.767 195.06 348.254 159.92 348.254H86V221Z" fill="white"/>
<path d="M86 62H141.206C175.313 62 202.962 89.649 202.962 123.756V123.756C202.962 157.862 175.313 185.511 141.206 185.511H86V62Z" fill="white"/>
<circle cx="123.607" cy="103.607" r="20.6073" fill="#E31837"/>
</svg>
