<svg width="20" height="20" viewBox="0 0 20 20" fill="none" xmlns="http://www.w3.org/2000/svg">
<path fill-rule="evenodd" clip-rule="evenodd" d="M2.98816 17.0118C3.30072 17.3244 3.72464 17.5 4.16667 17.5H15.8333C16.275 17.4987 16.6981 17.3227 17.0104 17.0104C17.3227 16.6981 17.4987 16.275 17.5 15.8333V4.16667C17.5 3.72464 17.3244 3.30072 17.0118 2.98816C16.6993 2.67559 16.2754 2.5 15.8333 2.5H4.16667C3.72464 2.5 3.30072 2.67559 2.98816 2.98816C2.67559 3.30072 2.5 3.72464 2.5 4.16667V15.8333C2.5 16.2754 2.67559 16.6993 2.98816 17.0118ZM4.16797 15.834H15.8346V5.83398H4.16797V15.834Z" fill="#FF3E5B"/>
<path d="M14.1654 9.99967H5.83203V8.33301H14.1654V9.99967Z" fill="#FF3E5B"/>
<path d="M10.832 13.3337H5.83203V11.667H10.832V13.3337Z" fill="#FF3E5B"/>
</svg>
