<svg width="270" height="350" viewBox="0 0 270 350" fill="none" xmlns="http://www.w3.org/2000/svg">
<path d="M270 175C270 291.667 225 350 135 350C45 350 3.72529e-07 291.667 3.72529e-07 175C3.72529e-07 58.3333 45 -2.86102e-05 135 -2.86102e-05C225 -2.86102e-05 270 58.3333 270 175ZM135 294C149.333 294 161.333 290.5 171 283.5C181 276.5 188.167 266.667 192.5 254C196.833 241.333 199.667 229 201 217C202.667 205 203.5 191 203.5 175C203.5 159.333 202.667 145.5 201 133.5C199.667 121.5 196.833 109.167 192.5 96.5C188.167 83.8333 181 74 171 67C161.333 60 149.333 56.5 135 56.5C120.333 56.5 108.167 60 98.5 67C88.8333 74 81.6667 83.8333 77 96.5C72.6667 109.167 69.6667 121.5 68 133.5C66.6667 145.5 66 159.333 66 175C66 191 66.6667 205 68 217C69.6667 229 72.6667 241.333 77 254C81.6667 266.667 88.8333 276.5 98.5 283.5C108.167 290.5 120.333 294 135 294Z" fill="#E31837"/>
</svg>
