<svg width="251" height="340" viewBox="0 0 251 340" fill="none" xmlns="http://www.w3.org/2000/svg">
<path d="M182.5 340L109 211.5H63.5V340H1.19209e-06V-3.57628e-06H127.5C160.5 -3.57628e-06 186.667 10 206 30C225.333 50 235 75.5 235 106.5C235 129.833 229.333 149.833 218 166.5C207 182.833 191.333 194.167 171 200.5L251 340H182.5ZM120 55H63.5V156.5H104.5C126.167 156.5 142.167 153 152.5 146C163.167 139 168.5 125.833 168.5 106.5C168.5 90.5 164.167 78 155.5 69C147.167 59.6666 135.333 55 120 55Z" fill="#E31837"/>
</svg>
