<svg width="1242" height="395" viewBox="0 0 1242 395" fill="none" xmlns="http://www.w3.org/2000/svg">
<path d="M182.5 389.99L109 261.49H63.5V389.99H0V49.9902H127.5C160.5 49.9902 186.667 59.9902 206 79.9902C225.333 99.9902 235 125.49 235 156.49C235 179.823 229.333 199.823 218 216.49C207 232.823 191.333 244.157 171 250.49L251 389.99H182.5ZM120 104.99H63.5V206.49H104.5C126.167 206.49 142.167 202.99 152.5 195.99C163.167 188.99 168.5 175.823 168.5 156.49C168.5 140.49 164.167 127.99 155.5 118.99C147.167 109.657 135.333 104.99 120 104.99ZM551.133 219.99C551.133 336.657 506.133 394.99 416.133 394.99C326.133 394.99 281.133 336.657 281.133 219.99C281.133 103.323 326.133 44.9902 416.133 44.9902C506.133 44.9902 551.133 103.323 551.133 219.99ZM416.133 338.99C430.466 338.99 442.466 335.49 452.133 328.49C462.133 321.49 469.299 311.657 473.633 298.99C477.966 286.323 480.799 273.99 482.133 261.99C483.799 249.99 484.633 235.99 484.633 219.99C484.633 204.323 483.799 190.49 482.133 178.49C480.799 166.49 477.966 154.157 473.633 141.49C469.299 128.823 462.133 118.99 452.133 111.99C442.466 104.99 430.466 101.49 416.133 101.49C401.466 101.49 389.299 104.99 379.633 111.99C369.966 118.99 362.799 128.823 358.133 141.49C353.799 154.157 350.799 166.49 349.133 178.49C347.799 190.49 347.133 204.323 347.133 219.99C347.133 235.99 347.799 249.99 349.133 261.99C350.799 273.99 353.799 286.323 358.133 298.99C362.799 311.657 369.966 321.49 379.633 328.49C389.299 335.49 401.466 338.99 416.133 338.99Z" fill="#E31837"/>
<path d="M933.5 389.99H870V49.9902H933.5V389.99ZM1054.54 389.99H993.54V49.9902H1057.04L1178.54 278.99H1179.54V49.9902H1241.04V389.99H1177.04L1055.54 169.99H1054.54V389.99Z" fill="#E31837"/>
<path fill-rule="evenodd" clip-rule="evenodd" d="M609.5 75.9902L561 0.990234L647.5 32.9902C736.3 18.9902 773.833 52.8232 781.5 71.4902C811.5 125.89 781.333 176.823 762.5 195.49C810.1 214.69 822.333 250.823 822.5 266.49C824.5 362.09 758 385.99 723 385.99H610L609.5 75.9902ZM645 221.058H718.92C754.06 221.058 782.547 249.545 782.547 284.685C782.547 319.825 754.06 348.312 718.92 348.312H645V221.058ZM700.206 61.9902H645V185.501H700.206C734.313 185.501 761.962 157.853 761.962 123.746C761.962 89.6392 734.313 61.9902 700.206 61.9902Z" fill="white"/>
<path d="M561 0.990299L561.173 0.5214L559.764 0L560.58 1.2618L561 0.990299ZM609.5 75.9903L610 75.9893V75.8423L609.92 75.7183L609.5 75.9903ZM647.5 32.9903L647.327 33.4592L647.449 33.5045L647.578 33.4842L647.5 32.9903ZM781.5 71.4903L781.037 71.6803L781.048 71.7063L781.062 71.7313L781.5 71.4903ZM762.5 195.49L762.148 195.135L761.609 195.67L762.313 195.954L762.5 195.49ZM822.5 266.49L822 266.495V266.5L822.5 266.49ZM610 385.99L609.5 385.991L609.501 386.49H610V385.99ZM645 221.058V220.558H644.5V221.058H645ZM645 348.312H644.5V348.812H645V348.312ZM645 61.9903V61.4903H644.5V61.9903H645ZM645 185.501H644.5V186.001H645V185.501ZM560.58 1.2618L609.08 76.2623L609.92 75.7183L561.42 0.7188L560.58 1.2618ZM647.673 32.5214L561.173 0.5214L560.827 1.4592L647.327 33.4592L647.673 32.5214ZM781.963 71.3003C774.174 52.3373 736.349 18.4764 647.422 32.4964L647.578 33.4842C736.251 19.5042 773.493 53.3103 781.037 71.6803L781.963 71.3003ZM762.852 195.845C781.76 177.105 812.094 125.932 781.938 71.2493L781.062 71.7313C810.906 125.848 780.907 176.542 762.148 195.135L762.852 195.845ZM823 266.485C822.831 250.621 810.479 214.304 762.687 195.026L762.313 195.954C809.721 215.076 821.835 251.026 822 266.495L823 266.485ZM723 386.49C740.596 386.49 766.094 380.486 786.952 362.468C807.829 344.434 824.003 314.409 823 266.48L822 266.5C822.997 314.171 806.921 343.896 786.298 361.712C765.656 379.544 740.404 385.49 723 385.49V386.49ZM610 386.49H723V385.49H610V386.49ZM609 75.9913L609.5 385.991L610.5 385.989L610 75.9893L609 75.9913ZM718.92 220.558H645V221.558H718.92V220.558ZM783.047 284.685C783.047 249.269 754.336 220.558 718.92 220.558V221.558C753.784 221.558 782.047 249.821 782.047 284.685H783.047ZM718.92 348.812C754.336 348.812 783.047 320.101 783.047 284.685H782.047C782.047 319.549 753.784 347.812 718.92 347.812V348.812ZM645 348.812H718.92V347.812H645V348.812ZM644.5 221.058V348.312H645.5V221.058H644.5ZM645 62.4903H700.206V61.4903H645V62.4903ZM645.5 185.501V61.9903H644.5V185.501H645.5ZM700.206 185.001H645V186.001H700.206V185.001ZM761.462 123.746C761.462 157.576 734.037 185.001 700.206 185.001V186.001C734.589 186.001 762.462 158.129 762.462 123.746H761.462ZM700.206 62.4903C734.037 62.4903 761.462 89.9153 761.462 123.746H762.462C762.462 89.3633 734.589 61.4903 700.206 61.4903V62.4903Z" fill="white"/>
<path d="M682.607 124.204C693.988 124.204 703.215 114.978 703.215 103.597C703.215 92.2159 693.988 82.9897 682.607 82.9897C671.226 82.9897 662 92.2159 662 103.597C662 114.978 671.226 124.204 682.607 124.204Z" fill="#E31837"/>
</svg>
