<svg width="1302" height="625" viewBox="0 0 1302 625" fill="none" xmlns="http://www.w3.org/2000/svg">
<path d="M212.5 438L139 309.5H93.5V438H30V98H157.5C190.5 98 216.667 108 236 128C255.333 148 265 173.5 265 204.5C265 227.833 259.333 247.833 248 264.5C237 280.833 221.333 292.167 201 298.5L281 438H212.5ZM150 153H93.5V254.5H134.5C156.167 254.5 172.167 251 182.5 244C193.167 237 198.5 223.833 198.5 204.5C198.5 188.5 194.167 176 185.5 167C177.167 157.667 165.333 153 150 153ZM581.133 268C581.133 384.667 536.133 443 446.133 443C356.133 443 311.133 384.667 311.133 268C311.133 151.333 356.133 93 446.133 93C536.133 93 581.133 151.333 581.133 268ZM446.133 387C460.466 387 472.466 383.5 482.133 376.5C492.133 369.5 499.299 359.667 503.633 347C507.966 334.333 510.799 322 512.133 310C513.799 298 514.633 284 514.633 268C514.633 252.333 513.799 238.5 512.133 226.5C510.799 214.5 507.966 202.167 503.633 189.5C499.299 176.833 492.133 167 482.133 160C472.466 153 460.466 149.5 446.133 149.5C431.466 149.5 419.299 153 409.633 160C399.966 167 392.799 176.833 388.133 189.5C383.799 202.167 380.799 214.5 379.133 226.5C377.799 238.5 377.133 252.333 377.133 268C377.133 284 377.799 298 379.133 310C380.799 322 383.799 334.333 388.133 347C392.799 359.667 399.966 369.5 409.633 376.5C419.299 383.5 431.466 387 446.133 387Z" fill="#E31837"/>
<path d="M963.5 438H900V98H963.5V438ZM1084.54 438H1023.54V98H1087.04L1208.54 327H1209.54V98H1271.04V438H1207.04L1085.54 218H1084.54V438Z" fill="#E31837"/>
<path fill-rule="evenodd" clip-rule="evenodd" d="M639.5 124L591 49L677.5 81C766.3 67 803.833 100.833 811.5 119.5C841.5 173.9 811.333 224.833 792.5 243.5C840.1 262.7 852.333 298.833 852.5 314.5C854.5 410.1 788 434 753 434H640L639.5 124ZM675 269.068H748.92C784.06 269.068 812.547 297.555 812.547 332.695C812.547 367.835 784.06 396.322 748.92 396.322H675V269.068ZM730.206 110H675V233.511H730.206C764.313 233.511 791.962 205.863 791.962 171.756C791.962 137.649 764.313 110 730.206 110Z" fill="white"/>
<path d="M591 49L591.173 48.5311L589.764 48.0097L590.58 49.2715L591 49ZM639.5 124L640 123.999L640 123.852L639.92 123.728L639.5 124ZM677.5 81L677.327 81.4689L677.449 81.5142L677.578 81.4939L677.5 81ZM811.5 119.5L811.037 119.69L811.048 119.716L811.062 119.741L811.5 119.5ZM792.5 243.5L792.148 243.145L791.609 243.68L792.313 243.964L792.5 243.5ZM852.5 314.5L852 314.505L852 314.51L852.5 314.5ZM640 434L639.5 434.001L639.501 434.5H640V434ZM675 269.068V268.568H674.5V269.068H675ZM675 396.322H674.5V396.822H675V396.322ZM675 110V109.5H674.5V110H675ZM675 233.511H674.5V234.011H675V233.511ZM590.58 49.2715L639.08 124.272L639.92 123.728L591.42 48.7285L590.58 49.2715ZM677.673 80.5311L591.173 48.5311L590.827 49.4689L677.327 81.4689L677.673 80.5311ZM811.963 119.31C804.174 100.347 766.349 66.4861 677.422 80.5061L677.578 81.4939C766.251 67.5139 803.493 101.32 811.037 119.69L811.963 119.31ZM792.852 243.855C811.76 225.115 842.094 173.942 811.938 119.259L811.062 119.741C840.906 173.858 810.907 224.552 792.148 243.145L792.852 243.855ZM853 314.495C852.831 298.631 840.479 262.314 792.687 243.036L792.313 243.964C839.721 263.086 851.835 299.036 852 314.505L853 314.495ZM753 434.5C770.596 434.5 796.094 428.496 816.952 410.478C837.829 392.444 854.003 362.419 853 314.49L852 314.51C852.997 362.181 836.921 391.906 816.298 409.722C795.656 427.554 770.404 433.5 753 433.5V434.5ZM640 434.5H753V433.5H640V434.5ZM639 124.001L639.5 434.001L640.5 433.999L640 123.999L639 124.001ZM748.92 268.568H675V269.568H748.92V268.568ZM813.047 332.695C813.047 297.279 784.336 268.568 748.92 268.568V269.568C783.784 269.568 812.047 297.831 812.047 332.695H813.047ZM748.92 396.822C784.336 396.822 813.047 368.111 813.047 332.695H812.047C812.047 367.559 783.784 395.822 748.92 395.822V396.822ZM675 396.822H748.92V395.822H675V396.822ZM674.5 269.068V396.322H675.5V269.068H674.5ZM675 110.5H730.206V109.5H675V110.5ZM675.5 233.511V110H674.5V233.511H675.5ZM730.206 233.011H675V234.011H730.206V233.011ZM791.462 171.756C791.462 205.586 764.037 233.011 730.206 233.011V234.011C764.589 234.011 792.462 206.139 792.462 171.756H791.462ZM730.206 110.5C764.037 110.5 791.462 137.925 791.462 171.756H792.462C792.462 137.373 764.589 109.5 730.206 109.5V110.5Z" fill="white"/>
<circle cx="712.607" cy="151.607" r="20.6073" fill="#E31837"/>
</svg>
