<svg width="1242" height="395" viewBox="0 0 1242 395" fill="none" xmlns="http://www.w3.org/2000/svg">
<path d="M182.5 390L109 261.5H63.5V390H0V50H127.5C160.5 50 186.667 60 206 80C225.333 100 235 125.5 235 156.5C235 179.833 229.333 199.833 218 216.5C207 232.833 191.333 244.167 171 250.5L251 390H182.5ZM120 105H63.5V206.5H104.5C126.167 206.5 142.167 203 152.5 196C163.167 189 168.5 175.833 168.5 156.5C168.5 140.5 164.167 128 155.5 119C147.167 109.667 135.333 105 120 105ZM551.133 220C551.133 336.667 506.133 395 416.133 395C326.133 395 281.133 336.667 281.133 220C281.133 103.333 326.133 45 416.133 45C506.133 45 551.133 103.333 551.133 220ZM416.133 339C430.466 339 442.466 335.5 452.133 328.5C462.133 321.5 469.299 311.667 473.633 299C477.966 286.333 480.799 274 482.133 262C483.799 250 484.633 236 484.633 220C484.633 204.333 483.799 190.5 482.133 178.5C480.799 166.5 477.966 154.167 473.633 141.5C469.299 128.833 462.133 119 452.133 112C442.466 105 430.466 101.5 416.133 101.5C401.466 101.5 389.299 105 379.633 112C369.966 119 362.799 128.833 358.133 141.5C353.799 154.167 350.799 166.5 349.133 178.5C347.799 190.5 347.133 204.333 347.133 220C347.133 236 347.799 250 349.133 262C350.799 274 353.799 286.333 358.133 299C362.799 311.667 369.966 321.5 379.633 328.5C389.299 335.5 401.466 339 416.133 339Z" fill="#E31837"/>
<path d="M933.5 390H870V50H933.5V390ZM1054.54 390H993.54V50H1057.04L1178.54 279H1179.54V50H1241.04V390H1177.04L1055.54 170H1054.54V390Z" fill="#E31837"/>
<path d="M609.5 76L561 1L647.5 33C736.3 19 773.833 52.833 781.5 71.5C811.5 125.9 781.333 176.833 762.5 195.5C810.1 214.7 822.333 250.833 822.5 266.5C824.5 362.1 758 386 723 386H610L609.5 76Z" fill="#342C2C" stroke="#342C2C"/>
<path d="M645 221H718.92C754.06 221 782.547 249.487 782.547 284.627C782.547 319.767 754.06 348.254 718.92 348.254H645V221Z" fill="white"/>
<path d="M645 62H700.206C734.313 62 761.962 89.649 761.962 123.756C761.962 157.862 734.313 185.511 700.206 185.511H645V62Z" fill="white"/>
<path d="M682.607 124.215C693.988 124.215 703.215 114.988 703.215 103.607C703.215 92.2262 693.988 83 682.607 83C671.226 83 662 92.2262 662 103.607C662 114.988 671.226 124.215 682.607 124.215Z" fill="#E31837"/>
</svg>
