<svg width="1302" height="625" viewBox="0 0 1302 625" fill="none" xmlns="http://www.w3.org/2000/svg">
<path d="M212.5 438L139 309.5H93.5V438H30V98H157.5C190.5 98 216.667 108 236 128C255.333 148 265 173.5 265 204.5C265 227.833 259.333 247.833 248 264.5C237 280.833 221.333 292.167 201 298.5L281 438H212.5ZM150 153H93.5V254.5H134.5C156.167 254.5 172.167 251 182.5 244C193.167 237 198.5 223.833 198.5 204.5C198.5 188.5 194.167 176 185.5 167C177.167 157.667 165.333 153 150 153ZM581.133 268C581.133 384.667 536.133 443 446.133 443C356.133 443 311.133 384.667 311.133 268C311.133 151.333 356.133 93 446.133 93C536.133 93 581.133 151.333 581.133 268ZM446.133 387C460.466 387 472.466 383.5 482.133 376.5C492.133 369.5 499.299 359.667 503.633 347C507.966 334.333 510.799 322 512.133 310C513.799 298 514.633 284 514.633 268C514.633 252.333 513.799 238.5 512.133 226.5C510.799 214.5 507.966 202.167 503.633 189.5C499.299 176.833 492.133 167 482.133 160C472.466 153 460.466 149.5 446.133 149.5C431.466 149.5 419.299 153 409.633 160C399.966 167 392.799 176.833 388.133 189.5C383.799 202.167 380.799 214.5 379.133 226.5C377.799 238.5 377.133 252.333 377.133 268C377.133 284 377.799 298 379.133 310C380.799 322 383.799 334.333 388.133 347C392.799 359.667 399.966 369.5 409.633 376.5C419.299 383.5 431.466 387 446.133 387Z" fill="#E31837"/>
<path d="M963.5 438H900V98H963.5V438ZM1084.54 438H1023.54V98H1087.04L1208.54 327H1209.54V98H1271.04V438H1207.04L1085.54 218H1084.54V438Z" fill="#E31837"/>
<path d="M639.5 124L591 49L677.5 81C766.3 67 803.833 100.833 811.5 119.5C841.5 173.9 811.333 224.833 792.5 243.5C840.1 262.7 852.333 298.833 852.5 314.5C854.5 410.1 788 434 753 434H640L639.5 124Z" fill="#342C2C" stroke="#342C2C"/>
<path d="M675 269H748.92C784.06 269 812.547 297.487 812.547 332.627V332.627C812.547 367.767 784.06 396.254 748.92 396.254H675V269Z" fill="white"/>
<path d="M675 110H730.206C764.313 110 791.962 137.649 791.962 171.756V171.756C791.962 205.862 764.313 233.511 730.206 233.511H675V110Z" fill="white"/>
<circle cx="712.607" cy="151.607" r="20.6073" fill="#E31837"/>
</svg>
