<svg width="18" height="18" viewBox="0 0 18 18" fill="none" xmlns="http://www.w3.org/2000/svg">
<path fill-rule="evenodd" clip-rule="evenodd" d="M2.07239 4.37937C1.15671 5.74978 0.667969 7.36094 0.667969 9.00912C0.667969 11.2193 1.54594 13.3389 3.10875 14.9017C4.67155 16.4645 6.79116 17.3425 9.0013 17.3425C10.6495 17.3425 12.2606 16.8537 13.6311 15.938C15.0015 15.0224 16.0696 13.7209 16.7003 12.1981C17.331 10.6754 17.4961 8.99987 17.1745 7.38337C16.853 5.76686 16.0593 4.282 14.8939 3.11656C13.7284 1.95112 12.2436 1.15745 10.6271 0.835908C9.01055 0.514364 7.33499 0.679392 5.81227 1.31012C4.28956 1.94085 2.98807 3.00896 2.07239 4.37937ZM11.9185 13.0846L13.0852 11.918C13.1615 11.8401 13.2043 11.7354 13.2043 11.6263C13.2043 11.5172 13.1615 11.4125 13.0852 11.3346L10.2435 8.49297C10.4418 7.94282 10.4682 7.34535 10.319 6.7799C10.1698 6.21444 9.85208 5.70774 9.40812 5.32707C8.96416 4.94641 8.41492 4.70978 7.83331 4.64862C7.25171 4.58746 6.66526 4.70465 6.15182 4.98464L8.11016 6.93464L6.93516 8.10964L4.97682 6.1513C4.69684 6.66474 4.57965 7.25119 4.64081 7.83279C4.70197 8.4144 4.93859 8.96364 5.31926 9.4076C5.69992 9.85156 6.20662 10.1692 6.77208 10.3184C7.33754 10.4676 7.93501 10.4413 8.48516 10.243L11.3268 13.0846C11.3656 13.1237 11.4116 13.1547 11.4624 13.1758C11.5132 13.197 11.5677 13.2079 11.6227 13.2079C11.6777 13.2079 11.7321 13.197 11.7829 13.1758C11.8337 13.1547 11.8798 13.1237 11.9185 13.0846Z" fill="#FF3E5B"/>
</svg>
