<svg width="20" height="16" viewBox="0 0 20 16" fill="none" xmlns="http://www.w3.org/2000/svg">
<path d="M14 13.61C14.4 13.08 14.8 12.54 15.2 12C16.16 12.72 17.41 13.66 18.4 14.4C18 14.93 17.6 15.47 17.2 16C16.21 15.26 14.96 14.32 14 13.61ZM3 15V11H2C1.47005 10.9984 0.962265 10.7872 0.587535 10.4125C0.212805 10.0377 0.00158273 9.52995 0 9L0 7C0.00158273 6.47005 0.212805 5.96227 0.587535 5.58753C0.962265 5.2128 1.47005 5.00158 2 5H6L11 2V14L6 11H5V15H3ZM12 4.65C12.4719 5.07019 12.8495 5.58546 13.1081 6.16197C13.3667 6.73847 13.5003 7.36316 13.5003 7.995C13.5003 8.62684 13.3667 9.25153 13.1081 9.82803C12.8495 10.4045 12.4719 10.9198 12 11.34V4.65ZM16 9V7H20V9H16ZM14 2.4C14.96 1.68 16.21 0.74 17.2 0C17.6 0.53 18 1.07 18.4 1.6C17.41 2.35 16.161 3.279 15.2 4C14.8 3.47 14.4 2.93 14 2.4Z" fill="#DEDEDE"/>
</svg>
