<svg width="18" height="18" viewBox="0 0 18 18" fill="none" xmlns="http://www.w3.org/2000/svg">
<path d="M9 0C4.02823 0 0 4.02823 0 9C0 13.9718 4.02823 18 9 18C13.9718 18 18 13.9718 18 9C18 4.02823 13.9718 0 9 0ZM11.0722 12.7052L7.87137 10.379C7.75887 10.2956 7.69355 10.1649 7.69355 10.027V3.91935C7.69355 3.67984 7.88952 3.48387 8.12903 3.48387H9.87097C10.1105 3.48387 10.3065 3.67984 10.3065 3.91935V8.91653L12.6109 10.5931C12.8069 10.7347 12.8468 11.0069 12.7052 11.2028L11.6819 12.6109C11.5403 12.8032 11.2681 12.8468 11.0722 12.7052Z" fill="white"/>
</svg>
