<svg width="16" height="16" viewBox="0 0 16 16" fill="none" xmlns="http://www.w3.org/2000/svg">
<path d="M12.1667 7.16667C12.4459 7.17059 12.7245 7.19566 13 7.24167V3.225L6.75 0.5L0.5 3.225V7.31667C0.504747 9.17617 1.11837 10.983 2.24703 12.4608C3.3757 13.9386 4.9573 15.006 6.75 15.5C7.20762 15.3887 7.65397 15.2352 8.08333 15.0417C7.55422 14.2939 7.24105 13.415 7.17814 12.5012C7.11523 11.5873 7.30499 10.6738 7.72665 9.86058C8.1483 9.04738 8.78559 8.36589 9.56873 7.89074C10.3519 7.41558 11.2507 7.16508 12.1667 7.16667Z" fill="#0B0B0C"/>
<path fill-rule="evenodd" clip-rule="evenodd" d="M12.1666 8.83325C11.5073 8.83325 10.8628 9.02875 10.3147 9.39502C9.76652 9.76129 9.33928 10.2819 9.08699 10.891C8.8347 11.5001 8.76869 12.1703 8.8973 12.8169C9.02592 13.4635 9.34339 14.0574 9.80956 14.5236C10.2757 14.9898 10.8697 15.3073 11.5163 15.4359C12.1629 15.5645 12.8331 15.4985 13.4422 15.2462C14.0513 14.9939 14.5719 14.5666 14.9382 14.0185C15.3044 13.4703 15.4999 12.8259 15.4999 12.1666C15.4999 11.2825 15.1487 10.4347 14.5236 9.80956C13.8985 9.18444 13.0506 8.83325 12.1666 8.83325ZM12.1657 9.98313C12.4129 9.98423 12.6496 10.0829 12.8244 10.2577C12.9992 10.4325 13.0979 10.6693 13.099 10.9165C13.0966 11.1633 12.9975 11.3993 12.823 11.5738C12.6485 11.7483 12.4125 11.8474 12.1657 11.8498C11.9189 11.8474 11.6829 11.7483 11.5083 11.5738C11.3338 11.3993 11.2347 11.1633 11.2323 10.9165C11.2334 10.6693 11.3321 10.4325 11.5069 10.2577C11.6817 10.0829 11.9185 9.98423 12.1657 9.98313ZM11.1132 14.2002C11.4383 14.37 11.7996 14.4585 12.1664 14.4582C12.5331 14.4585 12.8945 14.37 13.2196 14.2002C13.5447 14.0304 13.8238 13.7844 14.0331 13.4832C13.9914 12.8832 12.7747 12.5832 12.1664 12.5832C11.5581 12.5832 10.3414 12.8832 10.2997 13.4832C10.509 13.7844 10.7881 14.0304 11.1132 14.2002Z" fill="#0B0B0C"/>
</svg>
