<svg width="18" height="20" viewBox="0 0 18 20" fill="none" xmlns="http://www.w3.org/2000/svg">
<path d="M15.4167 2.75033H14.5V0.916992H12.6667V2.75033H5.33333V0.916992H3.5V2.75033H2.58333C2.34304 2.75044 2.10514 2.79801 1.88328 2.8903C1.66141 2.98259 1.45996 3.11778 1.29047 3.28812C1.12099 3.45846 0.986806 3.66059 0.895631 3.88291C0.804456 4.10523 0.75808 4.34337 0.759167 4.58366L0.75 17.417C0.75 17.9032 0.943154 18.3695 1.28697 18.7134C1.63079 19.0572 2.0971 19.2503 2.58333 19.2503H15.4167C15.9025 19.2489 16.3679 19.0553 16.7114 18.7118C17.0549 18.3683 17.2485 17.9028 17.25 17.417V4.58366C17.2485 4.09787 17.0549 3.6324 16.7114 3.2889C16.3679 2.9454 15.9025 2.75178 15.4167 2.75033V2.75033Z" fill="#342C2C"/>
<path d="M15.4168 17.4173H2.5835V7.33398H15.4168V17.4173Z" fill="white"/>
<path d="M4.4165 9.16699H8.99984V13.7503H4.4165V9.16699Z" fill="#342C2C"/>
</svg>
