<svg width="16" height="16" viewBox="0 0 16 16" fill="none" xmlns="http://www.w3.org/2000/svg">
<path fill-rule="evenodd" clip-rule="evenodd" d="M2.16667 0.5H13.8333C14.2754 0.5 14.6993 0.675595 15.0118 0.988155C15.3244 1.30072 15.5 1.72464 15.5 2.16667V13.8333C15.4987 14.275 15.3227 14.6981 15.0104 15.0104C14.6981 15.3227 14.275 15.4987 13.8333 15.5H2.16667C1.72464 15.5 1.30072 15.3244 0.988155 15.0118C0.675595 14.6993 0.5 14.2754 0.5 13.8333V2.16667C0.5 1.72464 0.675595 1.30072 0.988155 0.988155C1.30072 0.675595 1.72464 0.5 2.16667 0.5ZM2.16667 13H13.8333V2.99998H2.16667V13Z" fill="#0B0B0C"/>
<path d="M11.75 8.75H4.25V7.25H11.75V8.75Z" fill="#0B0B0C"/>
</svg>
