<svg width="17" height="16" viewBox="0 0 17 16" fill="none" xmlns="http://www.w3.org/2000/svg">
<path fill-rule="evenodd" clip-rule="evenodd" d="M5.31744 0.146458C5.47876 0.307778 5.51043 0.55784 5.39441 0.754279C3.68269 3.65252 4.07273 7.44807 6.56233 9.93768C9.05194 12.4273 12.8475 12.8173 15.7457 11.1056C15.9422 10.9896 16.1922 11.0212 16.3536 11.1826C16.5149 11.3439 16.5465 11.594 16.4305 11.7904C16.0712 12.3987 15.6305 12.9717 15.1087 13.4936C11.7667 16.8355 6.34838 16.8355 3.00645 13.4936C-0.335484 10.1516 -0.335483 4.73328 3.00645 1.39135C3.52827 0.869531 4.10129 0.428777 4.70962 0.0694909C4.90606 -0.0465274 5.15612 -0.0148627 5.31744 0.146458ZM3.72141 2.09061C3.71879 2.09323 3.71617 2.09584 3.71356 2.09845C0.762148 5.04986 0.762147 9.83504 3.71356 12.7865C6.66497 15.7379 11.4501 15.7379 14.4016 12.7865C14.4042 12.7838 14.4068 12.7812 14.4094 12.7786C11.4821 13.6711 8.17067 12.9602 5.85523 10.6448C3.53979 8.32934 2.82892 5.01792 3.72141 2.09061Z" fill="#0B0B0C"/>
</svg>
