<svg width="21" height="18" viewBox="0 0 21 18" fill="none" xmlns="http://www.w3.org/2000/svg">
<path d="M10.5 0.996094C4.70094 0.996094 0 5.60332 0 11.2868C0 13.1734 0.519531 14.9407 1.42406 16.4607C1.62859 16.8044 2.01833 17.0038 2.42448 17.0038H18.5755C18.9817 17.0038 19.3714 16.8044 19.5759 16.4607C20.4805 14.9407 21 13.1734 21 11.2868C21 5.60332 16.2991 0.996094 10.5 0.996094ZM10.5 3.28291C11.0363 3.28291 11.4691 3.64487 11.6054 4.12796C11.5649 4.20872 11.5092 4.27911 11.4796 4.36629L11.1435 5.35498C10.9565 5.47969 10.7435 5.56973 10.5004 5.56973C9.85615 5.56973 9.3337 5.0577 9.3337 4.42632C9.3337 3.79495 9.85578 3.28291 10.5 3.28291ZM3.5 13.5736C2.85578 13.5736 2.33333 13.0616 2.33333 12.4302C2.33333 11.7988 2.85578 11.2868 3.5 11.2868C4.14422 11.2868 4.66667 11.7988 4.66667 12.4302C4.66667 13.0616 4.14422 13.5736 3.5 13.5736ZM5.25 7.85655C4.60578 7.85655 4.08333 7.34452 4.08333 6.71314C4.08333 6.08176 4.60578 5.56973 5.25 5.56973C5.89422 5.56973 6.41667 6.08176 6.41667 6.71314C6.41667 7.34452 5.89422 7.85655 5.25 7.85655ZM14.2468 5.26923L12.0108 11.8438C12.5099 12.2633 12.8333 12.8783 12.8333 13.5736C12.8333 13.9924 12.7101 14.3793 12.5096 14.717H8.49042C8.2899 14.3793 8.16667 13.9924 8.16667 13.5736C8.16667 12.3609 9.13281 11.3786 10.3505 11.3014L12.5869 4.72647C12.7389 4.27768 13.2333 4.03149 13.6937 4.18442C14.152 4.33413 14.3992 4.82008 14.2468 5.26923ZM14.7813 7.31307L15.3471 5.64977C15.4736 5.60368 15.6071 5.57009 15.75 5.57009C16.3942 5.57009 16.9167 6.08212 16.9167 6.7135C16.9167 7.34487 16.3942 7.85691 15.75 7.85691C15.3351 7.85655 14.9884 7.63251 14.7813 7.31307ZM17.5 13.5736C16.8558 13.5736 16.3333 13.0616 16.3333 12.4302C16.3333 11.7988 16.8558 11.2868 17.5 11.2868C18.1442 11.2868 18.6667 11.7988 18.6667 12.4302C18.6667 13.0616 18.1442 13.5736 17.5 13.5736Z" fill="white"/>
</svg>
