<svg width="16" height="16" viewBox="0 0 16 16" fill="none" xmlns="http://www.w3.org/2000/svg">
<mask id="path-1-inside-1_6411_4811" fill="white">
<path fill-rule="evenodd" clip-rule="evenodd" d="M1.76398 3.83323C0.939867 5.06659 0.5 6.51664 0.5 8C0.5 9.98912 1.29018 11.8968 2.6967 13.3033C4.10322 14.7098 6.01087 15.5 8 15.5C9.48336 15.5 10.9334 15.0601 12.1668 14.236C13.4001 13.4119 14.3614 12.2406 14.9291 10.8701C15.4967 9.49968 15.6453 7.99168 15.3559 6.53682C15.0665 5.08197 14.3522 3.7456 13.3033 2.6967C12.2544 1.64781 10.918 0.933503 9.46317 0.644114C8.00832 0.354725 6.50032 0.50325 5.12987 1.07091C3.75943 1.63856 2.58809 2.59986 1.76398 3.83323ZM7.24597 4.295H5.45703V3.5H10.707V4.289H9.30397C9.59009 4.58675 9.77187 5.0045 9.82437 5.588H10.707V6.37625H9.81322C9.66687 7.556 8.91284 8.6495 7.39297 8.663H6.83187L9.7535 12.5H8.36881L5.45703 8.65625V7.6685H7.28665C8.08203 7.6685 8.64312 7.25075 8.77175 6.37625H5.45703V5.588H8.77175C8.63722 4.72625 8.04659 4.295 7.24597 4.295Z"/>
</mask>
<path fill-rule="evenodd" clip-rule="evenodd" d="M1.76398 3.83323C0.939867 5.06659 0.5 6.51664 0.5 8C0.5 9.98912 1.29018 11.8968 2.6967 13.3033C4.10322 14.7098 6.01087 15.5 8 15.5C9.48336 15.5 10.9334 15.0601 12.1668 14.236C13.4001 13.4119 14.3614 12.2406 14.9291 10.8701C15.4967 9.49968 15.6453 7.99168 15.3559 6.53682C15.0665 5.08197 14.3522 3.7456 13.3033 2.6967C12.2544 1.64781 10.918 0.933503 9.46317 0.644114C8.00832 0.354725 6.50032 0.50325 5.12987 1.07091C3.75943 1.63856 2.58809 2.59986 1.76398 3.83323ZM7.24597 4.295H5.45703V3.5H10.707V4.289H9.30397C9.59009 4.58675 9.77187 5.0045 9.82437 5.588H10.707V6.37625H9.81322C9.66687 7.556 8.91284 8.6495 7.39297 8.663H6.83187L9.7535 12.5H8.36881L5.45703 8.65625V7.6685H7.28665C8.08203 7.6685 8.64312 7.25075 8.77175 6.37625H5.45703V5.588H8.77175C8.63722 4.72625 8.04659 4.295 7.24597 4.295Z" fill="#0B0B0C"/>
<path d="M1.76398 3.83323L2.59545 4.3888L1.76398 3.83323ZM2.6967 13.3033L1.98959 14.0104H1.98959L2.6967 13.3033ZM14.9291 10.8701L14.0052 10.4874V10.4874L14.9291 10.8701ZM15.3559 6.53682L16.3367 6.34173V6.34173L15.3559 6.53682ZM13.3033 2.6967L14.0104 1.9896V1.98959L13.3033 2.6967ZM9.46317 0.644114L9.65827 -0.336672L9.46317 0.644114ZM5.45703 4.295H4.45703V5.295H5.45703V4.295ZM5.45703 3.5V2.5H4.45703V3.5H5.45703ZM10.707 3.5H11.707V2.5H10.707V3.5ZM10.707 4.289V5.289H11.707V4.289H10.707ZM9.30397 4.289V3.289H6.95613L8.58292 4.98189L9.30397 4.289ZM9.82437 5.588L8.8284 5.67761L8.91031 6.588H9.82437V5.588ZM10.707 5.588H11.707V4.588H10.707V5.588ZM10.707 6.37625V7.37625H11.707V6.37625H10.707ZM9.81322 6.37625V5.37625H8.9296L8.82082 6.25315L9.81322 6.37625ZM7.39297 8.663V9.66304L7.40185 9.66296L7.39297 8.663ZM6.83187 8.663V7.663H4.81354L6.03626 9.2688L6.83187 8.663ZM9.7535 12.5V13.5H11.7718L10.5491 11.8942L9.7535 12.5ZM8.36881 12.5L7.5717 13.1038L7.87181 13.5H8.36881V12.5ZM5.45703 8.65625H4.45703V8.99225L4.65992 9.26009L5.45703 8.65625ZM5.45703 7.6685V6.6685H4.45703V7.6685H5.45703ZM8.77175 6.37625L9.7611 6.52177L9.92959 5.37625H8.77175V6.37625ZM5.45703 6.37625H4.45703V7.37625H5.45703V6.37625ZM5.45703 5.588V4.588H4.45703V5.588H5.45703ZM8.77175 5.588V6.588H9.93997L9.75978 5.43375L8.77175 5.588ZM1.5 8C1.5 6.71442 1.88122 5.45771 2.59545 4.3888L0.932508 3.27766C-0.00148386 4.67547 -0.5 6.31886 -0.5 8H1.5ZM3.40381 12.5962C2.18482 11.3772 1.5 9.72391 1.5 8H-0.5C-0.5 10.2543 0.395533 12.4163 1.98959 14.0104L3.40381 12.5962ZM8 14.5C6.27609 14.5 4.62279 13.8152 3.40381 12.5962L1.98959 14.0104C3.58365 15.6045 5.74566 16.5 8 16.5V14.5ZM11.6112 13.4046C10.5423 14.1188 9.28558 14.5 8 14.5V16.5C9.68114 16.5 11.3245 16.0015 12.7223 15.0675L11.6112 13.4046ZM14.0052 10.4874C13.5132 11.6752 12.6801 12.6903 11.6112 13.4046L12.7223 15.0675C14.1202 14.1335 15.2096 12.806 15.853 11.2528L14.0052 10.4874ZM14.3751 6.73191C14.6259 7.99279 14.4972 9.29972 14.0052 10.4874L15.853 11.2528C16.4963 9.69964 16.6646 7.99057 16.3367 6.34173L14.3751 6.73191ZM12.5962 3.40381C13.5052 4.31285 14.1243 5.47104 14.3751 6.73191L16.3367 6.34173C16.0087 4.6929 15.1991 3.17834 14.0104 1.9896L12.5962 3.40381ZM9.26808 1.6249C10.529 1.8757 11.6871 2.49477 12.5962 3.40381L14.0104 1.98959C12.8217 0.800849 11.3071 -0.00869721 9.65827 -0.336672L9.26808 1.6249ZM5.51256 1.99479C6.70028 1.50282 8.00721 1.3741 9.26808 1.6249L9.65827 -0.336672C8.00943 -0.664646 6.30036 -0.496318 4.74719 0.147027L5.51256 1.99479ZM2.59545 4.3888C3.30968 3.31988 4.32484 2.48676 5.51256 1.99479L4.74719 0.147027C3.19402 0.790372 1.8665 1.87984 0.932508 3.27766L2.59545 4.3888ZM5.45703 5.295H7.24597V3.295H5.45703V5.295ZM4.45703 3.5V4.295H6.45703V3.5H4.45703ZM10.707 2.5H5.45703V4.5H10.707V2.5ZM11.707 4.289V3.5H9.70703V4.289H11.707ZM9.30397 5.289H10.707V3.289H9.30397V5.289ZM10.8203 5.49839C10.7527 4.74686 10.5051 4.09568 10.025 3.59611L8.58292 4.98189C8.6751 5.07782 8.79101 5.26214 8.8284 5.67761L10.8203 5.49839ZM10.707 4.588H9.82437V6.588H10.707V4.588ZM11.707 6.37625V5.588H9.70703V6.37625H11.707ZM9.81322 7.37625H10.707V5.37625H9.81322V7.37625ZM7.40185 9.66296C8.42305 9.65389 9.25554 9.27149 9.84713 8.64152C10.4201 8.0314 10.7126 7.24955 10.8056 6.49935L8.82082 6.25315C8.76754 6.68269 8.60983 7.03747 8.3892 7.27242C8.18722 7.4875 7.88276 7.65861 7.38408 7.66304L7.40185 9.66296ZM6.83187 9.663H7.39297V7.663H6.83187V9.663ZM10.5491 11.8942L7.62748 8.05719L6.03626 9.2688L8.95788 13.1058L10.5491 11.8942ZM8.36881 13.5H9.7535V11.5H8.36881V13.5ZM4.65992 9.26009L7.5717 13.1038L9.16592 11.8962L6.25414 8.05241L4.65992 9.26009ZM4.45703 7.6685V8.65625H6.45703V7.6685H4.45703ZM7.28665 6.6685H5.45703V8.6685H7.28665V6.6685ZM7.78239 6.23073C7.74584 6.47921 7.6671 6.55864 7.63798 6.58298C7.60394 6.61143 7.51097 6.6685 7.28665 6.6685V8.6685C7.85771 8.6685 8.44298 8.51669 8.92049 8.11764C9.40291 7.71448 9.66903 7.14778 9.7611 6.52177L7.78239 6.23073ZM5.45703 7.37625H8.77175V5.37625H5.45703V7.37625ZM4.45703 5.588V6.37625H6.45703V5.588H4.45703ZM8.77175 4.588H5.45703V6.588H8.77175V4.588ZM7.24597 5.295C7.46799 5.295 7.57731 5.35312 7.62702 5.39362C7.67018 5.42878 7.7481 5.51412 7.78372 5.74224L9.75978 5.43375C9.66086 4.80012 9.3762 4.23896 8.89026 3.84307C8.41087 3.4525 7.82457 3.295 7.24597 3.295V5.295Z" fill="#0B0B0C" mask="url(#path-1-inside-1_6411_4811)"/>
</svg>
