<svg width="60" height="42" viewBox="0 0 60 42" fill="none" xmlns="http://www.w3.org/2000/svg">
<path d="M39 27.8014H43.5C44.25 27.8014 45 27.118 45 26.4347V12.0847C45 11.4014 44.25 10.718 43.5 10.718H39C38.25 10.718 37.5 11.4014 37.5 12.0847V26.4347C37.5 27.118 38.25 27.8014 39 27.8014ZM50.25 27.8014H54.75C55.5 27.8014 56.25 27.118 56.25 26.4347V1.83468C56.25 1.15135 55.5 0.468018 54.75 0.468018H50.25C49.5 0.468018 48.75 1.15135 48.75 1.83468V26.4347C48.75 27.118 49.5 27.8014 50.25 27.8014ZM16.5 27.8014H21C21.75 27.8014 22.5 27.118 22.5 26.4347V18.918C22.5 18.2347 21.75 17.5514 21 17.5514H16.5C15.75 17.5514 15 18.2347 15 18.918V26.4347C15 27.118 15.75 27.8014 16.5 27.8014ZM27.75 27.8014H32.25C33 27.8014 33.75 27.118 33.75 26.4347V5.25135C33.75 4.56802 33 3.88468 32.25 3.88468H27.75C27 3.88468 26.25 4.56802 26.25 5.25135V26.4347C26.25 27.118 27 27.8014 27.75 27.8014ZM58.125 34.6347H7.5V2.17635C7.5 1.2325 6.66094 0.468018 5.625 0.468018H1.875C0.839063 0.468018 0 1.2325 0 2.17635V38.0514C0 39.938 1.6793 41.468 3.75 41.468H58.125C59.1609 41.468 60 40.7035 60 39.7597V36.343C60 35.3992 59.1609 34.6347 58.125 34.6347Z" fill="#007BFF"/>
</svg>
