<svg width="60" height="47" viewBox="0 0 60 47" fill="none" xmlns="http://www.w3.org/2000/svg">
<path d="M58.125 38.7143H7.5V2.55556C7.5 1.5041 6.66094 0.652466 5.625 0.652466H1.875C0.839062 0.652466 0 1.5041 0 2.55556V42.5205C0 44.6222 1.6793 46.3267 3.75 46.3267H58.125C59.1609 46.3267 60 45.4751 60 44.4236V40.6174C60 39.566 59.1609 38.7143 58.125 38.7143ZM54.375 4.45865H40.5398C38.0344 4.45865 36.7793 7.53334 38.5512 9.33176L42.348 13.1855L33.75 21.9136L25.152 13.1867C23.6871 11.6999 21.3129 11.6999 19.8492 13.1867L11.7996 21.3569C11.0672 22.1003 11.0672 23.3052 11.7996 24.0486L14.4504 26.7391C15.1828 27.4825 16.3699 27.4825 17.1023 26.7391L22.5 21.2594L31.098 29.9863C32.5629 31.4731 34.9371 31.4731 36.4008 29.9863L47.6508 18.5677L51.4477 22.4215C53.2195 24.2199 56.2488 22.946 56.2488 20.403V6.36174C56.25 5.31029 55.4109 4.45865 54.375 4.45865Z" fill="#FFC107"/>
</svg>
