<svg width="16" height="16" viewBox="0 0 16 16" fill="none" xmlns="http://www.w3.org/2000/svg">
<path fill-rule="evenodd" clip-rule="evenodd" d="M8 0.5C6.51664 0.5 5.06659 0.939867 3.83323 1.76398C2.59986 2.58809 1.63856 3.75943 1.07091 5.12987C0.50325 6.50032 0.354725 8.00832 0.644114 9.46318C0.933503 10.918 1.64781 12.2544 2.6967 13.3033C3.7456 14.3522 5.08197 15.0665 6.53683 15.3559C7.99168 15.6453 9.49968 15.4968 10.8701 14.9291C12.2406 14.3614 13.4119 13.4001 14.236 12.1668C15.0601 10.9334 15.5 9.48336 15.5 8C15.5 6.01088 14.7098 4.10322 13.3033 2.6967C11.8968 1.29018 9.98913 0.5 8 0.5ZM10.7073 5.25489C10.9935 5.25489 11.2734 5.33978 11.5114 5.49883C11.7495 5.65789 11.935 5.88396 12.0446 6.14845C12.1541 6.41295 12.1828 6.70399 12.1269 6.98478C12.0711 7.26557 11.9332 7.52349 11.7308 7.72592C11.5284 7.92836 11.2704 8.06622 10.9896 8.12207C10.7089 8.17793 10.4178 8.14926 10.1533 8.0397C9.88883 7.93014 9.66276 7.74461 9.50371 7.50657C9.34465 7.26853 9.25976 6.98868 9.25976 6.70239C9.25926 6.51216 9.29637 6.32371 9.36893 6.14787C9.4415 5.97203 9.54811 5.81226 9.68262 5.67775C9.81713 5.54323 9.9769 5.43663 10.1527 5.36406C10.3286 5.29149 10.517 5.25439 10.7073 5.25489ZM7.19085 4.36812C6.89977 4.17363 6.55756 4.06982 6.20749 4.06982C5.7383 4.07062 5.28855 4.25735 4.95678 4.58912C4.62502 4.92089 4.43828 5.37063 4.43749 5.83982C4.43749 6.1899 4.5413 6.53211 4.73579 6.82318C4.93028 7.11426 5.20671 7.34112 5.53014 7.47509C5.85356 7.60906 6.20945 7.64411 6.5528 7.57581C6.89614 7.50752 7.21153 7.33894 7.45907 7.0914C7.7066 6.84386 7.87518 6.52848 7.94348 6.18513C8.01177 5.84179 7.97672 5.4859 7.84275 5.16247C7.70879 4.83905 7.48192 4.56261 7.19085 4.36812ZM6.20801 10.9177V13.7302C5.32136 13.4508 4.51167 12.9694 3.84271 12.3239C3.17376 11.6783 2.66381 10.8863 2.35302 10.0102C3.14052 9.17017 5.10551 8.74267 6.20801 8.74267C6.68714 8.75279 7.16425 8.80804 7.63301 8.90767C7.22694 9.0696 6.87637 9.3455 6.62353 9.70213C6.3707 10.0588 6.22639 10.4809 6.20801 10.9177ZM7.40672 13.9698C7.60348 13.9912 7.80131 14.0012 7.99922 13.9998C9.20608 13.9976 10.3843 13.6323 11.3808 12.9515C12.3773 12.2707 13.1459 11.3058 13.5867 10.1823C12.7297 9.62374 11.7297 9.32427 10.7067 9.31982C9.61172 9.31982 7.40672 9.85232 7.40672 10.9173V13.9698Z" fill="#0B0B0C"/>
</svg>
