<svg width="20" height="16" viewBox="0 0 20 16" fill="none" xmlns="http://www.w3.org/2000/svg">
<path d="M18.8274 0.501818C16.9246 0.605947 13.1426 0.984963 10.8078 2.36308C10.6467 2.45817 10.5554 2.62725 10.5554 2.80404V14.9871C10.5554 15.3738 10.9939 15.6183 11.3637 15.4388C13.7659 14.273 17.2399 13.9549 18.9576 13.8678C19.5441 13.838 20 13.3847 20 12.8413V1.52972C20.0003 0.936749 19.467 0.466997 18.8274 0.501818ZM9.19217 2.36308C6.85776 0.984963 3.07575 0.606282 1.17294 0.501818C0.533342 0.466997 0 0.936749 0 1.52972V12.8416C0 13.3854 0.455911 13.8387 1.04238 13.8682C2.76081 13.9552 6.23657 14.2736 8.63869 15.4401C9.00745 15.6193 9.44461 15.3752 9.44461 14.9895V2.79801C9.44461 2.62089 9.35363 2.45851 9.19217 2.36308Z" fill="white"/>
</svg>
