<svg width="16" height="16" viewBox="0 0 16 16" fill="none" xmlns="http://www.w3.org/2000/svg">
<path fill-rule="evenodd" clip-rule="evenodd" d="M8 0C8.27614 0 8.5 0.223858 8.5 0.5V2.75C8.5 3.02614 8.27614 3.25 8 3.25C7.72386 3.25 7.5 3.02614 7.5 2.75V0.5C7.5 0.223858 7.72386 0 8 0ZM2.34315 2.34315C2.53841 2.14789 2.85499 2.14789 3.05025 2.34315L4.60355 3.89645C4.79882 4.09171 4.79882 4.40829 4.60355 4.60355C4.40829 4.79882 4.09171 4.79882 3.89645 4.60355L2.34315 3.05025C2.14789 2.85499 2.14789 2.53841 2.34315 2.34315ZM13.6569 2.34315C13.8521 2.53841 13.8521 2.85499 13.6569 3.05025L12.1036 4.60355C11.9083 4.79882 11.5917 4.79882 11.3964 4.60355C11.2012 4.40829 11.2012 4.09171 11.3964 3.89645L12.9497 2.34315C13.145 2.14789 13.4616 2.14789 13.6569 2.34315ZM8 5.5C6.61929 5.5 5.5 6.61929 5.5 8C5.5 9.38071 6.61929 10.5 8 10.5C9.38071 10.5 10.5 9.38071 10.5 8C10.5 6.61929 9.38071 5.5 8 5.5ZM4.5 8C4.5 6.067 6.067 4.5 8 4.5C9.933 4.5 11.5 6.067 11.5 8C11.5 9.933 9.933 11.5 8 11.5C6.067 11.5 4.5 9.933 4.5 8ZM0 8C0 7.72386 0.223858 7.5 0.5 7.5H2.75C3.02614 7.5 3.25 7.72386 3.25 8C3.25 8.27614 3.02614 8.5 2.75 8.5H0.5C0.223858 8.5 0 8.27614 0 8ZM12.75 8C12.75 7.72386 12.9739 7.5 13.25 7.5H15.5C15.7761 7.5 16 7.72386 16 8C16 8.27614 15.7761 8.5 15.5 8.5H13.25C12.9739 8.5 12.75 8.27614 12.75 8ZM4.60355 11.3964C4.79882 11.5917 4.79882 11.9083 4.60355 12.1036L3.05025 13.6569C2.85499 13.8521 2.53841 13.8521 2.34314 13.6569C2.14788 13.4616 2.14788 13.145 2.34314 12.9498L3.89645 11.3964C4.09171 11.2012 4.40829 11.2012 4.60355 11.3964ZM11.3964 11.3964C11.5917 11.2012 11.9083 11.2012 12.1036 11.3964L13.6569 12.9497C13.8521 13.145 13.8521 13.4616 13.6569 13.6569C13.4616 13.8521 13.145 13.8521 12.9497 13.6569L11.3964 12.1036C11.2012 11.9083 11.2012 11.5917 11.3964 11.3964ZM8 12.75C8.27614 12.75 8.5 12.9739 8.5 13.25V15.5C8.5 15.7761 8.27614 16 8 16C7.72386 16 7.5 15.7761 7.5 15.5V13.25C7.5 12.9739 7.72386 12.75 8 12.75Z" fill="#FF3E5B"/>
</svg>
