<svg width="220" height="50" viewBox="0 0 220 50" fill="none" xmlns="http://www.w3.org/2000/svg">
<path fill-rule="evenodd" clip-rule="evenodd" d="M159.795 24.6067H170.841C173.335 24.6067 175.393 26.5881 175.393 29.0065V39.1172H158.896C157.36 39.1172 156.113 37.9226 156.113 36.4366V32.9401C156.113 31.5706 157.273 30.4342 158.693 30.4342H167.855L166.898 32.4739H160.172C159.882 32.4739 159.534 32.707 159.534 32.9983V35.7664C159.534 36.0869 159.853 36.2909 160.172 36.2909H171.856V29.7058C171.856 28.4238 170.725 27.4331 169.45 27.4331H158.49L159.795 24.6067ZM93.7197 21.4599V19.3037H90.1535V23.4995L93.7197 21.4599ZM90.1535 25.5391L93.7197 23.4995V39.1464H90.1535V25.5391ZM111.695 24.6067C114.189 24.6067 116.247 26.5881 116.247 29.0065V39.1172H112.681V29.7058C112.681 28.4238 111.55 27.4331 110.275 27.4331H101.722V39.1172H98.1556V24.6067C102.65 24.6359 107.172 24.6067 111.695 24.6067ZM157.302 24.6067H148.343C145.849 24.6067 143.791 26.5881 143.791 29.0065V39.1172H147.357V29.7058C147.357 28.4238 148.488 27.4331 149.763 27.4331H155.939L157.302 24.6067ZM37.6179 39.1172H41.1841V29.0065C41.1841 26.5881 39.1256 24.6067 36.6322 24.6067H13.2637V39.1172H16.8298V27.9576C16.8298 27.637 17.1488 27.4331 17.4677 27.4331H24.8319C25.1219 27.4331 25.4698 27.6662 25.4698 27.9576V39.1172H29.007V27.9576C29.007 27.637 29.3259 27.4331 29.6448 27.4331H35.2405C36.5162 27.4331 37.6469 28.4238 37.6469 29.7058L37.6179 39.1172ZM67.3359 19.3328V39.1172H70.9021V19.3328H67.3359ZM82.1514 39.1172H85.7176V29.0065C85.7176 26.5881 83.659 24.6067 81.1656 24.6067H73.5984L72.2647 27.4039H79.774C81.0497 27.4039 82.1804 28.3946 82.1804 29.6767L82.1514 39.1172ZM138.717 19.3328V39.1172H122.626C121.089 39.1172 119.842 37.9226 119.842 36.4366V29.0356C119.842 26.6172 121.901 24.6359 124.394 24.6359H133.556L132.194 27.4331H125.786C124.51 27.4331 123.38 28.4238 123.38 29.7058V35.7956C123.38 36.1161 123.699 36.32 123.989 36.32H135.093V19.3328H138.717ZM47.9975 24.6067H59.0439C61.5373 24.6067 63.5958 26.5881 63.5958 29.0065V39.1172H47.0987C45.562 39.1172 44.3153 37.9226 44.3153 36.4366V32.9401C44.3153 31.5706 45.4751 30.4342 46.8957 30.4342H56.0576L55.0718 32.4739H48.3454C48.0555 32.4739 47.7365 32.707 47.7365 32.9983V35.7664C47.7365 36.0869 48.0555 36.2909 48.3454 36.2909H60.0296V29.7058C60.0296 28.4238 58.8989 27.4331 57.6232 27.4331H46.6638L47.9975 24.6067Z" fill="white"/>
<path fill-rule="evenodd" clip-rule="evenodd" d="M199.604 17.5843V17.4969C199.691 17.0015 199.778 16.5645 199.923 16.1274C200.068 15.7195 200.242 15.3407 200.503 15.0202C200.764 14.6997 201.083 14.4374 201.489 14.2626C201.894 14.0878 202.387 14.0004 202.996 14.0004H204.533L204.794 14.0295C205.055 14.0878 205.316 14.1461 205.548 14.2626C205.78 14.3792 205.983 14.4957 206.156 14.6705C206.33 14.8454 206.504 15.0493 206.591 15.2824C206.678 15.5155 206.736 15.7486 206.736 16.04V16.2148L206.707 16.3896C206.649 16.8267 206.533 17.1764 206.417 17.4677C206.272 17.7591 206.127 17.9631 205.896 18.1379C205.693 18.3127 205.432 18.4001 205.142 18.4584C204.852 18.5167 204.533 18.5458 204.156 18.5458H201.257C201.199 18.8372 201.199 19.1286 201.199 19.3617C201.199 19.5948 201.257 19.7987 201.344 19.9444C201.431 20.0901 201.605 20.2067 201.837 20.2941C202.097 20.3815 202.445 20.4106 202.909 20.4106H206.041L205.229 21.7801H201.981C200.938 21.7801 200.3 21.5179 199.923 21.0517C199.546 20.5855 199.401 20.0027 199.401 19.3325C199.401 19.0703 199.43 18.7789 199.459 18.4584C199.517 18.167 199.546 17.8757 199.604 17.5843ZM187.137 14.7871L189.195 13.6216L187.978 21.7218H186.006L186.18 20.5855C186.47 18.6915 186.76 16.7976 187.021 14.9036V14.8454L187.137 14.7871ZM187.717 11.6694H189.485L189.34 12.7183L187.166 13.9421L187.514 11.6694H187.717ZM197.719 14.4666L197.111 15.4572H193.921L193.631 15.4864C193.544 15.5155 193.457 15.5155 193.371 15.5447C193.313 15.5738 193.226 15.6029 193.197 15.6321C193.168 15.6612 193.11 15.7195 193.081 15.7778C193.052 15.836 193.023 15.9234 192.994 15.9817C192.965 16.04 192.965 16.1274 192.965 16.2148C192.965 16.2731 192.965 16.3314 192.994 16.3896C193.023 16.4479 193.052 16.5062 193.11 16.5645C193.168 16.6227 193.226 16.6519 193.313 16.7102C193.399 16.7684 193.515 16.7976 193.602 16.8267L196.27 17.4677C196.589 17.5551 196.879 17.6717 197.111 17.7882C197.343 17.9339 197.546 18.1088 197.69 18.3419C197.835 18.5458 197.951 18.8081 197.98 19.0703C198.038 19.3325 198.038 19.6239 197.98 19.9153C197.922 20.2649 197.806 20.5854 197.633 20.8185C197.488 21.0516 197.285 21.2556 197.053 21.4013C196.821 21.547 196.56 21.6344 196.27 21.6927C195.98 21.7509 195.69 21.7801 195.371 21.7801H190.152L190.964 20.4398H194.327C194.559 20.4398 194.762 20.4398 194.965 20.4106C195.168 20.3815 195.342 20.3524 195.487 20.2941C195.632 20.2358 195.748 20.1484 195.835 20.0318C195.922 19.9153 196.009 19.7405 196.038 19.5365C196.067 19.3908 196.038 19.2743 196.009 19.1868C195.951 19.0994 195.893 19.012 195.777 18.9246C195.661 18.8372 195.516 18.7789 195.4 18.7206C195.255 18.6624 195.11 18.6332 194.965 18.6041L192.617 18.0505C192.327 17.9922 192.066 17.8757 191.834 17.7591C191.602 17.6134 191.428 17.4677 191.283 17.2638C191.138 17.0598 191.051 16.8558 190.993 16.5936C190.935 16.3605 190.964 16.0983 190.993 15.8069C191.051 15.4864 191.167 15.195 191.283 14.9619C191.428 14.7288 191.602 14.554 191.834 14.4374C192.037 14.3209 192.269 14.2335 192.53 14.1752C192.791 14.1169 193.081 14.0878 193.371 14.0878H197.893L197.719 14.4666ZM181.686 21.6053L179.454 17.2055H177.308L176.641 21.7218H174.67L174.96 19.9153C175.424 16.9141 175.888 13.913 176.294 10.9409V10.8535H182.005L182.295 10.8827C182.643 10.9409 182.962 11.0283 183.223 11.174C183.513 11.3197 183.745 11.5237 183.948 11.7568C184.151 11.9899 184.267 12.2521 184.383 12.5435C184.47 12.8349 184.528 13.1554 184.528 13.505V13.7964L184.499 14.1169C184.412 14.6705 184.267 15.1076 184.064 15.4572C183.861 15.8069 183.571 16.0983 183.281 16.3022C182.991 16.5062 182.701 16.6227 182.353 16.7393C182.063 16.8267 181.773 16.885 181.454 16.9433L184.006 21.7218H181.773L181.686 21.6053ZM180.961 12.2813H178.033L177.511 15.836H179.802C180.15 15.836 180.498 15.8069 180.816 15.7486C181.135 15.6903 181.425 15.6029 181.686 15.4572C181.918 15.3116 182.15 15.1367 182.295 14.9036C182.469 14.6705 182.585 14.3792 182.643 14.0004C182.701 13.6799 182.701 13.3885 182.643 13.1554C182.585 12.9514 182.498 12.7766 182.382 12.6309C182.237 12.4852 182.063 12.3978 181.86 12.3395C181.599 12.3104 181.309 12.2813 180.961 12.2813ZM203.692 15.3407H202.996C202.387 15.3407 202.039 15.5738 201.837 15.9234C201.634 16.2731 201.547 16.7393 201.46 17.2929H203.808C203.953 17.2929 204.069 17.2638 204.185 17.2346C204.272 17.2055 204.388 17.1472 204.446 17.0889C204.533 17.0307 204.62 16.9141 204.678 16.7976C204.736 16.681 204.794 16.5062 204.823 16.3314C204.852 16.0983 204.852 15.9234 204.823 15.8069C204.794 15.6903 204.736 15.6029 204.649 15.5447C204.562 15.4864 204.417 15.4281 204.272 15.399C204.098 15.3698 203.895 15.3407 203.692 15.3407Z" fill="white"/>
</svg>
