<svg width="60" height="56" viewBox="0 0 60 56" fill="none" xmlns="http://www.w3.org/2000/svg">
<path d="M58.2122 31.464H32.0406L49.4703 48.729C50.1365 49.3889 51.2328 49.4424 51.9177 48.8033C56.1861 44.82 59.1221 39.4503 59.9835 33.4141C60.1313 32.3806 59.2655 31.464 58.2122 31.464ZM56.4662 24.3845C55.5574 11.3333 45.0288 0.904182 31.8531 0.00395054C30.8472 -0.0648778 30.0001 0.775265 30.0001 1.77382V26.2199H54.6806C55.6887 26.2199 56.5357 25.3809 56.4662 24.3845ZM24.706 31.464V5.53972C24.706 4.49637 23.7807 3.63874 22.7384 3.78514C9.5947 5.62493 -0.451963 16.9991 0.0156822 30.6304C0.496563 44.6299 12.6653 56.11 26.8049 55.9341C32.3637 55.8653 37.5001 54.091 41.7233 51.1238C42.5946 50.512 42.6519 49.2414 41.8964 48.493L24.706 31.464Z" fill="#FF3E5B"/>
</svg>
