<svg width="20" height="20" viewBox="0 0 20 20" fill="none" xmlns="http://www.w3.org/2000/svg">
<path fill-rule="evenodd" clip-rule="evenodd" d="M9.9999 0.400024C10.3313 0.400024 10.5999 0.668654 10.5999 1.00002V9.40002H18.9999C19.3313 9.40002 19.5999 9.66865 19.5999 10C19.5999 10.3314 19.3313 10.6 18.9999 10.6H10.5999V19C10.5999 19.3314 10.3313 19.6 9.9999 19.6C9.66853 19.6 9.3999 19.3314 9.3999 19L9.3999 10.6H0.999902C0.668531 10.6 0.399902 10.3314 0.399902 10C0.399902 9.66865 0.668532 9.40002 0.999902 9.40002H9.3999L9.3999 1.00002C9.3999 0.668654 9.66853 0.400024 9.9999 0.400024Z" fill="#FF3E5B"/>
</svg>
