<svg width="16" height="18" viewBox="0 0 16 18" fill="none" xmlns="http://www.w3.org/2000/svg">
<path fill-rule="evenodd" clip-rule="evenodd" d="M10.35 2.33352H13.8333C14.275 2.33484 14.6981 2.51086 15.0104 2.82313C15.3227 3.13541 15.4987 3.55857 15.5 4.00019V15.6669C15.4987 16.1085 15.3227 16.5316 15.0104 16.8439C14.6981 17.1562 14.275 17.3322 13.8333 17.3335H2.16667C1.72504 17.3322 1.30189 17.1562 0.989612 16.8439C0.677337 16.5316 0.501319 16.1085 0.5 15.6669V4.00019C0.501319 3.55857 0.677337 3.13541 0.989612 2.82313C1.30189 2.51086 1.72504 2.33484 2.16667 2.33352H5.65C5.82063 1.84639 6.13844 1.42432 6.55944 1.1257C6.98045 0.827089 7.48384 0.666687 8 0.666687C8.51615 0.666687 9.01955 0.827089 9.44056 1.1257C9.86156 1.42432 10.1794 1.84639 10.35 2.33352ZM8.46299 2.4738C8.32595 2.38223 8.16484 2.33336 8.00002 2.33336C7.77901 2.33336 7.56704 2.42116 7.41076 2.57744C7.25448 2.73372 7.16669 2.94568 7.16669 3.16669C7.16669 3.33151 7.21556 3.49263 7.30713 3.62967C7.3987 3.76671 7.52885 3.87352 7.68112 3.93659C7.83339 3.99966 8.00094 4.01617 8.16259 3.98401C8.32425 3.95186 8.47273 3.87249 8.58928 3.75595C8.70582 3.6394 8.78519 3.49092 8.81734 3.32927C8.84949 3.16762 8.83299 3.00006 8.76992 2.84779C8.70685 2.69552 8.60004 2.56537 8.46299 2.4738ZM8.00001 5.6667C8.49447 5.6667 8.97782 5.81332 9.38894 6.08803C9.80006 6.36273 10.1205 6.75318 10.3097 7.20999C10.4989 7.66681 10.5484 8.16947 10.452 8.65443C10.3555 9.13938 10.1174 9.58484 9.76778 9.93447C9.41815 10.2841 8.97269 10.5222 8.48774 10.6187C8.00279 10.7151 7.50012 10.6656 7.04331 10.4764C6.58649 10.2872 6.19604 9.96675 5.92134 9.55563C5.64664 9.1445 5.50001 8.66115 5.50001 8.1667C5.50001 7.50366 5.76341 6.86778 6.23225 6.39893C6.70109 5.93009 7.33697 5.6667 8.00001 5.6667ZM2.99998 14.5V15.6667H13V14.5C13 12.8334 9.66665 11.9167 7.99998 11.9167C6.33332 11.9167 2.99998 12.8334 2.99998 14.5Z" fill="#0B0B0C"/>
</svg>
