<svg width="16" height="14" viewBox="0 0 16 14" fill="none" xmlns="http://www.w3.org/2000/svg">
<path fill-rule="evenodd" clip-rule="evenodd" d="M13.3104 0.563769C13.5227 0.714759 13.6823 0.928535 13.7667 1.17499L15.5 6.16666V12.8333C15.5 13.0543 15.4122 13.2663 15.2559 13.4226C15.0996 13.5789 14.8877 13.6667 14.6667 13.6667H13.8333C13.6123 13.6667 13.4004 13.5789 13.2441 13.4226C13.0878 13.2663 13 13.0543 13 12.8333V12H3V12.8333C3 13.0543 2.9122 13.2663 2.75592 13.4226C2.59964 13.5789 2.38768 13.6667 2.16667 13.6667H1.33333C1.11232 13.6667 0.900358 13.5789 0.744078 13.4226C0.587797 13.2663 0.5 13.0543 0.5 12.8333V6.16666L2.23333 1.17499C2.31837 0.928947 2.47811 0.715592 2.69025 0.564705C2.90239 0.413817 3.15634 0.332928 3.41667 0.333325H12.5833C12.8438 0.33218 13.0981 0.412778 13.3104 0.563769ZM2.72221 9.28934C2.92777 9.42669 3.16945 9.5 3.41667 9.5C3.74819 9.5 4.06614 9.36831 4.30056 9.13388C4.53498 8.89946 4.66667 8.58152 4.66667 8.25C4.66667 8.00277 4.59336 7.7611 4.45601 7.55554C4.31866 7.34998 4.12343 7.18976 3.89503 7.09515C3.66662 7.00054 3.41529 6.97579 3.17281 7.02402C2.93033 7.07225 2.7076 7.1913 2.53279 7.36612C2.35797 7.54093 2.23892 7.76366 2.19069 8.00614C2.14246 8.24861 2.16721 8.49995 2.26182 8.72836C2.35643 8.95676 2.51665 9.15199 2.72221 9.28934ZM12.5833 9.5C12.3361 9.5 12.0944 9.42669 11.8889 9.28934C11.6833 9.15199 11.5231 8.95676 11.4285 8.72836C11.3339 8.49995 11.3091 8.24861 11.3574 8.00614C11.4056 7.76366 11.5246 7.54093 11.6995 7.36612C11.8743 7.1913 12.097 7.07225 12.3395 7.02402C12.582 6.97579 12.8333 7.00054 13.0617 7.09515C13.2901 7.18976 13.4853 7.34998 13.6227 7.55554C13.76 7.7611 13.8333 8.00277 13.8333 8.25C13.8333 8.58152 13.7016 8.89946 13.4672 9.13388C13.2328 9.36831 12.9149 9.5 12.5833 9.5ZM3.41667 1.58333L2.16667 5.33333H13.8333L12.5833 1.58333H3.41667Z" fill="#0B0B0C"/>
</svg>
