<svg width="16" height="16" viewBox="0 0 16 16" fill="none" xmlns="http://www.w3.org/2000/svg">
<path fill-rule="evenodd" clip-rule="evenodd" d="M6.69565 0C2.99775 0 0 2.99775 0 6.69565C0 10.3936 2.99775 13.3913 6.69565 13.3913C8.36464 13.3913 9.891 12.7807 11.0635 11.7706L15.1464 15.8535C15.3417 16.0488 15.6583 16.0488 15.8535 15.8535C16.0488 15.6583 16.0488 15.3417 15.8535 15.1464L11.7706 11.0635C12.7807 9.891 13.3913 8.36464 13.3913 6.69565C13.3913 2.99775 10.3936 0 6.69565 0ZM1 6.69565C1 3.55003 3.55003 1 6.69565 1C9.84128 1 12.3913 3.55003 12.3913 6.69565C12.3913 9.84128 9.84128 12.3913 6.69565 12.3913C3.55003 12.3913 1 9.84128 1 6.69565Z" fill="#635D5D"/>
</svg>
