<svg width="16" height="16" viewBox="0 0 16 16" fill="none" xmlns="http://www.w3.org/2000/svg">
<path fill-rule="evenodd" clip-rule="evenodd" d="M3.83323 1.76398C5.06659 0.939867 6.51664 0.5 8 0.5C9.98913 0.5 11.8968 1.29018 13.3033 2.6967C14.7098 4.10322 15.5 6.01088 15.5 8C15.5 9.48336 15.0601 10.9334 14.236 12.1668C13.4119 13.4001 12.2406 14.3614 10.8701 14.9291C9.49968 15.4968 7.99168 15.6453 6.53683 15.3559C5.08197 15.0665 3.7456 14.3522 2.6967 13.3033C1.64781 12.2544 0.933503 10.918 0.644114 9.46318C0.354725 8.00832 0.50325 6.50032 1.07091 5.12987C1.63856 3.75943 2.59986 2.58809 3.83323 1.76398ZM10.6252 11.7479L11.6752 10.6979C11.7439 10.6278 11.7824 10.5335 11.7824 10.4354C11.7824 10.3372 11.7439 10.243 11.6752 10.1729L9.11767 7.61538C9.29619 7.12024 9.31988 6.58252 9.18559 6.07361C9.05131 5.5647 8.76541 5.10867 8.36584 4.76607C7.96628 4.42347 7.47196 4.21051 6.94852 4.15546C6.42507 4.10042 5.89727 4.20589 5.43518 4.45788L7.19768 6.21288L6.14018 7.27038L4.37768 5.50788C4.12569 5.96997 4.02022 6.49777 4.07526 7.02122C4.13031 7.54466 4.34327 8.03898 4.68587 8.43854C5.02847 8.83811 5.4845 9.12401 5.99341 9.25829C6.50232 9.39258 7.04004 9.36889 7.53518 9.19037L10.0927 11.7479C10.1275 11.783 10.169 11.8109 10.2147 11.83C10.2604 11.849 10.3094 11.8588 10.3589 11.8588C10.4084 11.8588 10.4574 11.849 10.5031 11.83C10.5488 11.8109 10.5903 11.783 10.6252 11.7479Z" fill="#0B0B0C"/>
</svg>
