<svg width="18" height="18" viewBox="0 0 18 18" fill="none" xmlns="http://www.w3.org/2000/svg">
<path d="M12.6523 5.89392H11.7363C11.5371 5.89392 11.3476 5.98962 11.2304 6.15369L8.1601 10.4115L6.76947 8.48181C6.65229 8.3197 6.46479 8.22205 6.26361 8.22205H5.3476C5.22065 8.22205 5.14643 8.36658 5.22065 8.47009L7.65424 11.8451C7.71173 11.9253 7.78752 11.9907 7.87532 12.0358C7.96312 12.0809 8.06041 12.1045 8.15912 12.1045C8.25783 12.1045 8.35512 12.0809 8.44293 12.0358C8.53073 11.9907 8.60651 11.9253 8.66401 11.8451L12.7773 6.14197C12.8535 6.03845 12.7792 5.89392 12.6523 5.89392Z" fill="#00A310"/>
<path d="M9 0.25C4.16797 0.25 0.25 4.16797 0.25 9C0.25 13.832 4.16797 17.75 9 17.75C13.832 17.75 17.75 13.832 17.75 9C17.75 4.16797 13.832 0.25 9 0.25ZM9 16.2656C4.98828 16.2656 1.73438 13.0117 1.73438 9C1.73438 4.98828 4.98828 1.73438 9 1.73438C13.0117 1.73438 16.2656 4.98828 16.2656 9C16.2656 13.0117 13.0117 16.2656 9 16.2656Z" fill="#00A310"/>
</svg>
