<svg width="10" height="10" viewBox="0 0 10 10" fill="none" xmlns="http://www.w3.org/2000/svg">
<path fill-rule="evenodd" clip-rule="evenodd" d="M4.11111 5L1.12698 2.01587C0.817392 1.70628 0.675533 1.56442 0.681213 1.42874C0.686016 1.31398 0.796351 1.20365 1 0.999999C1.20365 0.796349 1.31399 0.686014 1.42874 0.681211C1.56442 0.675531 1.70628 0.81739 2.01587 1.12698L5 4.11111L7.98413 1.12698C8.29372 0.817389 8.43558 0.67553 8.57126 0.68121C8.68601 0.686014 8.79635 0.796349 9 0.999998C9.20365 1.20365 9.31398 1.31398 9.31879 1.42874C9.32447 1.56442 9.18261 1.70628 8.87301 2.01587L5.88889 5L8.87302 7.98413C9.18261 8.29372 9.32447 8.43558 9.31879 8.57126C9.31399 8.68601 9.20365 8.79635 9 9C8.79635 9.20365 8.68602 9.31398 8.57126 9.31879C8.43558 9.32447 8.29372 9.18261 7.98413 8.87302L5 5.88889L2.01587 8.87301C1.70628 9.18261 1.56442 9.32447 1.42874 9.31879C1.31398 9.31398 1.20365 9.20365 0.999999 9C0.796349 8.79635 0.686014 8.68601 0.68121 8.57126C0.67553 8.43558 0.81739 8.29372 1.12698 7.98413L4.11111 5Z" fill="#00A310"/>
</svg>
