<svg width="20" height="18" viewBox="0 0 20 18" fill="none" xmlns="http://www.w3.org/2000/svg">
<path d="M19.1595 4.25961L17.7495 2.84961L14.1895 6.39961L15.5995 7.80961C15.5995 7.80961 19.0495 4.28961 19.1595 4.25961Z" fill="white"/>
<path d="M11 0H9V5H11V0Z" fill="white"/>
<path d="M4.39984 7.80984L5.80984 6.39984L2.25984 2.83984L0.839844 4.25984C0.949844 4.28984 4.39984 7.80984 4.39984 7.80984Z" fill="white"/>
<path d="M18 9H13C13 9.79565 12.6839 10.5587 12.1213 11.1213C11.5587 11.6839 10.7956 12 10 12C9.20435 12 8.44129 11.6839 7.87868 11.1213C7.31607 10.5587 7 9.79565 7 9H2C1.47005 9.00158 0.962265 9.2128 0.587535 9.58753C0.212805 9.96227 0.00158273 10.4701 0 11L0 16C0.00158273 16.5299 0.212805 17.0377 0.587535 17.4125C0.962265 17.7872 1.47005 17.9984 2 18H18C18.5299 17.9984 19.0377 17.7872 19.4125 17.4125C19.7872 17.0377 19.9984 16.5299 20 16V11C19.9984 10.4701 19.7872 9.96227 19.4125 9.58753C19.0377 9.2128 18.5299 9.00158 18 9V9Z" fill="white"/>
</svg>
