<svg width="24" height="24" viewBox="0 0 24 24" fill="none" xmlns="http://www.w3.org/2000/svg">
<path fill-rule="evenodd" clip-rule="evenodd" d="M19.0681 19.7649C21.1767 17.8444 22.5 15.0767 22.5 12C22.5 6.20101 17.799 1.5 12 1.5C6.20101 1.5 1.5 6.20101 1.5 12C1.5 15.0767 2.82333 17.8444 4.93186 19.7648C5.51728 16.3913 8.45905 13.8259 12 13.8259C15.541 13.8259 18.4827 16.3913 19.0681 19.7649ZM17.6718 20.8379C17.586 17.7791 15.0795 15.3259 12 15.3259C8.92053 15.3259 6.41403 17.7791 6.3282 20.8379C7.96394 21.8898 9.91071 22.5 12 22.5C14.0893 22.5 16.0361 21.8898 17.6718 20.8379ZM12 24C18.6274 24 24 18.6274 24 12C24 5.37258 18.6274 0 12 0C5.37258 0 0 5.37258 0 12C0 18.6274 5.37258 24 12 24ZM12 11.4224C13.3264 11.4224 14.4016 10.3471 14.4016 9.02074C14.4016 7.69434 13.3264 6.61908 12 6.61908C10.6736 6.61908 9.5983 7.69434 9.5983 9.02074C9.5983 10.3471 10.6736 11.4224 12 11.4224ZM12 12.9224C14.1548 12.9224 15.9016 11.1756 15.9016 9.02074C15.9016 6.86591 14.1548 5.11908 12 5.11908C9.84513 5.11908 8.0983 6.86591 8.0983 9.02074C8.0983 11.1756 9.84513 12.9224 12 12.9224Z" fill="#FF3E5B"/>
</svg>
